<?xml version="1.0" standalone="no"?><!DOCTYPE svg PUBLIC "-//W3C//DTD SVG 1.1//EN" "http://www.w3.org/Graphics/SVG/1.1/DTD/svg11.dtd"><svg t="1724921484983" class="icon" viewBox="0 0 1024 1024" version="1.1" xmlns="http://www.w3.org/2000/svg" p-id="4642" width="256" height="256" xmlns:xlink="http://www.w3.org/1999/xlink"><path d="M191.756709 484.646128c-7.843404 121.845106-39.656397 156.439603-68.419177 233.330383-38.832113 75.510922-67.649362 90.53322-89.38939 124.895319 15.410837 15.091291 68.139574 62.732709 124.579404 82.965787 162.412936 31.555177 362.278128 30.124482 496.64 0 111.91739-21.667404 184.447092-7.640057 265.00539 56.512454 4.629787-157.30383 2.959433-344.870128-67.910808-497.703943" fill="#C9177E" p-id="4643"></path><path d="M913.988993 134.583376c-26.598582-54.39183-90.914496-6.35461-107.193192-23.421277C723.434213 25.403915 622.595631 3.965277 543.591489 0h-43.668879c-79.399943 1.98627-180.238525 25.011745-263.211575 111.158468-16.275064 17.070298-80.98678-30.966922-107.185929 23.421277-30.571121 63.520681 62.326014 69.87166 57.561873 98.060709-9.128851 50.815092-3.173674 126.242496 3.972539 200.478865 11.111489 125.850326-82.97305 427.171404 112.745305 548.253958 36.922099 23.025475 136.569645 35.731064 223.11217 37.717333h0.795234c86.542525-1.98627 174.279716-14.691858 211.201816-37.717333 196.114156-121.082553 102.025986-422.403631 113.540539-548.250327 6.74678-74.24 12.701957-149.667404 3.968907-200.482496-4.764142-28.18905 88.132993-34.93583 57.565504-98.057078z" fill="#8CC5E7" p-id="4644"></path><path d="M659.514099 173.088681c-132.597106 15.483461-114.731574 153.636312-63.520681 198.499858 95.282837 83.368851 194.527319 0 183.412199-84.164085-9.924085-80.98678-78.604709-119.099915-119.891518-114.335773z" fill="#E0DEDC" p-id="4645"></path><path d="M668.64295 246.932879c24.982695 0 45.259348 20.276652 45.259348 45.255717 0 24.982695-20.280284 45.259348-45.259348 45.259347-24.979064 0-45.255716-20.280284-45.255716-45.259347 0-24.979064 20.276652-45.255716 45.255716-45.255717z m-294.345532-0.613673c24.975433 0 45.255716 20.280284 45.255717 45.259347 0 24.979064-20.280284 45.255716-45.255717 45.255717-24.982695 0-45.259348-20.276652-45.259347-45.255717 0-24.982695 20.280284-45.259348 45.259347-45.259347z" fill="#111212" p-id="4646"></path><path d="M656.736227 258.443801a14.299688 14.299688 0 0 1 14.288794 14.292426 14.299688 14.299688 0 0 1-14.288794 14.292425 14.299688 14.299688 0 0 1-14.292426-14.292425 14.299688 14.299688 0 0 1 14.292426-14.292426z m-270.855262-2.414751a14.299688 14.299688 0 0 1 14.292425 14.292425 14.299688 14.299688 0 0 1-14.292425 14.292426 14.299688 14.299688 0 0 1-14.292426-14.292426 14.299688 14.299688 0 0 1 14.292426-14.292425z" fill="#FFFFFF" p-id="4647"></path><path d="M521.75705 382.307858c-63.520681 9.528284-86.150355 27.789617-81.386213 56.374468 7.941447 46.842553 157.608851 41.686241 162.372993 2.382071 3.968908-33.744794-55.978667-62.329645-80.98678-58.756539z" fill="#B8937F" p-id="4648"></path><path d="M480.866043 401.364426c-10.719319 38.904738 86.146723 32.94956 83.764652 7.937815-1.191035-14.688227-14.292426-33.345362-48.828823-32.553759-13.497191 0.399433-30.175319 6.35461-34.935829 24.615944z" p-id="4649"></path><path d="M484.039716 464.485674c-3.573106 1.586837-9.524652 40.491574 8.736681 42.477844 12.306156 1.191035 46.05095 5.159943 53.988766 0 15.483461-9.924085 13.896624-33.744794 5.163575-39.699972-14.691858-9.528284-63.916482-4.764142-67.889022-2.777872z m-100.838581-291.396993c132.600738 15.483461 114.735206 153.636312 63.520681 198.499858-95.275574 83.368851-194.523688 0-183.412199-84.164085 10.323518-80.98678 79.004142-119.099915 119.895149-114.335773z" fill="#E0DEDC" p-id="4650"></path><path d="M374.471375 292.189856m-45.257554 0a45.257554 45.257554 0 1 0 90.515108 0 45.257554 45.257554 0 1 0-90.515108 0Z" fill="#111212" p-id="4651"></path><path d="M386.381258 272.737048m-14.29186 0a14.291859 14.291859 0 1 0 28.583719 0 14.291859 14.291859 0 1 0-28.583719 0Z" fill="#FFFFFF" p-id="4652"></path><path d="M859.600794 698.712965c43.668879 0.399433 22.230241-93.292936-4.764142-74.635802-13.10139 9.132482-15.483461 30.175319-15.483461 48.03722 0 9.924085 7.937816 26.20278 20.247603 26.598582z m-676.086922 0c-43.668879 0.399433-22.230241-93.292936 4.764142-74.635802 13.10139 9.132482 15.483461 30.175319 15.483461 48.03722 0 9.924085-7.937816 26.20278-20.247603 26.598582z m593.113873 287.823886c-23.820709-35.331631-45.259348-7.941447-79.795745 9.524653-16.278695 8.337248 26.994383 38.113135 75.427404 15.882893 12.705589-5.955177 12.309787-13.896624 4.368341-25.407546z m-510.140823 3.968908c23.820709-35.331631 45.259348-7.941447 79.795745 9.528284 16.278695 8.337248-26.994383 38.109504-75.427405 15.879262-12.705589-5.955177-12.309787-13.896624-4.36834-25.407546z" fill="#B8937F" p-id="4653"></path><path d="M839.752624 144.108028c-2.385702 8.337248 8.333617 7.146213 12.302525 32.953192 1.590468 9.528284 35.731064-13.896624 21.83444-30.966922-11.510922-14.292426-32.154326-10.319887-34.140596-1.98627z m-636.38695 0c2.382071 8.337248-8.337248 7.146213-12.309787 32.953192-1.586837 9.528284-35.727433-13.896624-21.830809-30.966922 11.111489-14.292426 31.758525-10.319887 34.140596-1.98627z" fill="#0083C0" p-id="4654"></path><path d="M520.213787 588.135489l140.255319 81.484256V830.093617l-140.255319 79.610553-140.019291-79.610553v-160.473872l140.019291-81.484256z" fill="#FF4088" p-id="4655"></path><path d="M666.870922 663.239716l2.323972 4.045163v165.161759l-2.367546 4.070582-144.307745 81.912737h-4.611631L373.832624 836.51722l-2.367546-4.070582v-165.158127l2.323972-4.041532 144.071716-83.837277h4.702411l144.304114 83.833646z m-277.950638 11.394724v150.382751l131.297134 74.650327 131.52227-74.657589v-150.368227l-131.52227-76.411461-131.297134 76.404199z" fill="#C9177E" p-id="4656"></path><path d="M588.313418 842.81373h-38.236595v-78.495773h-66.574525v78.495773h-38.236596v-185.663546h38.236596v77.606128h66.574525v-77.606128h38.236595v185.663546z" fill="#FFFFFF" p-id="4657"></path><path d="M381.345589 172.692879c96.822468 0 153.6 56.853787 168.161134 116.180426 15.287376 62.271546-98.932199 116.180426-195.751035 116.180425s-149.278865-111.841135-149.278865-175.960964c0-64.11983 80.049929-56.399887 176.868766-56.399887z m0 56.399887c58.284482 0 99.676596 21.180823 99.676595 59.780539s-41.392113 69.937021-99.676595 69.937021c-58.284482 0-111.626894-47.361816-111.626894-85.961532 0-38.603348 53.342411-43.756028 111.623262-43.756028z" fill="#C9177E" p-id="4658"></path><path d="M675.756482 172.692879c93.325617 0 151.780766-7.157106 151.780766 56.962724s-58.455149 175.398128-151.780766 175.398127S506.662128 352.989504 506.662128 288.873305s75.768738-116.180426 169.094354-116.180426z m-10.893617 56.962724c55.775319 0 104.502468 2.959433 104.502468 41.283177 0 38.320113-48.727149 87.366809-104.502468 87.366809-55.77895 0-101.063716-31.108539-101.063716-69.432284 0-38.323745 45.284766-59.217702 101.063716-59.217702z" fill="#C9177E" p-id="4659"></path></svg>