<?xml version="1.0" encoding="utf-8"?><svg version="1.1" id="Layer_1" xmlns="http://www.w3.org/2000/svg" xmlns:xlink="http://www.w3.org/1999/xlink" x="0px" y="0px" viewBox="0 0 96 96" style="enable-background:new 0 0 96 96;" xml:space="preserve"><style type="text/css">.st0{fill:#FCDC00;}.st1{fill:#173647;}.st2{fill:#FFFFFF;}.st3{fill:#2C282C;}.st4{fill:#F4CF14;}.st5{fill:#63DB2A;}.st6{fill:#50E4EA;}.st7{fill:#07CED6;}.st8{fill:#85EA2D;}.st9{fill:#04AADB;}.st10{fill:#FF730B;}.st11{fill:#17D1FC;}.st12{fill:#00AADB;}.st13{fill:none;}</style><g><g><g><g><rect x="2.955" y="2.949" class="st8" width="90.089" height="90.101"/></g><path class="st8" d="M90.162,5.877l-0.086,84.299L5.794,89.963L5.88,5.877H90.162z M96,0h-5.048H5.048H0v5.047v85.906V96h5.048h85.904H96v-5.047V5.047V0L96,0z"/></g></g><g><path class="st1" d="M28.578,31.044c-0.161,1.795,0.06,3.65-0.06,5.465c-0.142,1.815-0.363,3.61-0.727,5.405c-0.504,2.561-2.097,4.497-4.295,6.111c4.276,2.783,4.759,7.098,5.042,11.475c0.142,2.359,0.081,4.739,0.323,7.079c0.181,1.815,0.887,2.279,2.763,2.339c0.766,0.02,1.552,0,2.44,0v5.607c-5.546,0.948-10.124-0.625-11.254-5.324c-0.363-1.714-0.606-3.469-0.685-5.244c-0.122-1.875,0.08-3.751-0.061-5.627c-0.404-5.143-1.069-6.877-5.989-7.119v-6.393c0.362-0.081,0.705-0.141,1.068-0.181c2.702-0.141,3.851-0.968,4.436-3.631c0.283-1.492,0.444-3.004,0.504-4.538c0.202-2.924,0.121-5.909,0.625-8.813c0.706-4.175,3.288-6.192,7.583-6.433c1.21-0.061,2.44,0,3.832,0v5.728c-0.585,0.04-1.089,0.121-1.613,0.121C29.022,26.951,28.84,28.14,28.578,31.044z"/><path class="st1" d="M38.924,48.066v0.202c-0.121,1.997-1.835,3.529-3.832,3.408H34.85c-2.017-0.1-3.589-1.835-3.489-3.872c0.101-2.017,1.836-3.59,3.852-3.489h0.081C37.331,44.355,38.964,46.029,38.924,48.066z"/><path class="st1" d="M51.67,47.945c0,2.279-1.391,3.731-3.61,3.731c-2.259,0-3.751-1.412-3.751-3.61c-0.021-0.121-0.021-0.222-0.021-0.343c0.06-1.936,1.694-3.469,3.65-3.408C50.177,44.295,51.65,45.747,51.67,47.945z"/><path class="st1" d="M64.658,48.046c-0.121,2.158-1.997,3.953-3.852,3.63h-0.04c-2.057,0-3.71-1.653-3.71-3.71c0.06-2.057,1.775-3.691,3.832-3.65C62.944,44.315,64.758,46.049,64.658,48.046z"/><path class="st1" d="M79.924,44.758v6.393c-0.283,0.1-0.564,0.161-0.868,0.201c-3.126,0.202-4.557,1.492-4.86,4.618c-0.202,1.997-0.182,4.033-0.323,6.05c-0.06,2.198-0.262,4.396-0.605,6.575c-0.807,3.953-3.267,5.929-7.341,6.171c-1.311,0.081-2.621,0-4.053,0V69.06c0.766-0.04,1.432-0.101,2.117-0.121c2.44-0.061,3.287-0.847,3.408-3.267c0.141-2.662,0.202-5.324,0.302-7.966c0.181-3.852,1.231-7.281,4.8-9.68c-2.036-1.452-3.67-3.227-4.114-5.607c-0.504-2.884-0.665-5.848-0.947-8.773c-0.141-1.472-0.141-2.944-0.283-4.396c-0.141-1.593-1.23-2.138-2.662-2.158c-0.827-0.02-1.654-0.02-2.723-0.02v-5.566c6.737-1.109,11.375,1.129,11.798,7.543c0.181,2.703,0.161,5.425,0.323,8.128c0.081,1.452,0.302,2.925,0.666,4.336c0.584,2.219,1.754,3.005,4.094,3.106C79.037,44.638,79.401,44.698,79.924,44.758z"/></g></g></svg>